/* XPM */
static char * menuButtonI_xpm[] = {
"27 54 41 1",
" 	c #F7FDD4",
".	c #F6FCD4",
"+	c #F6FDD0",
"@	c #F6FDCD",
"#	c #F4FCCC",
"$	c #F4FCC9",
"%	c #F4FCC8",
"&	c #F4FCC5",
"*	c #F3FCC1",
"=	c #F2FCBD",
"-	c #F3FCBD",
";	c #F1FBB9",
">	c #F2FCB9",
",	c #F1FBB6",
"'	c #EFFBB5",
")	c #EFFBB2",
"!	c #F0FBB2",
"~	c #EEFAAE",
"{	c #EDFAAA",
"]	c #EEFAA7",
"^	c #ECFAA6",
"/	c #ECFAA2",
"(	c #EBF9A3",
"_	c #EBFA9F",
":	c #EBF99F",
"<	c #ECFA9B",
"[	c #EAFA97",
"}	c #EBFA97",
"|	c #E9F994",
"1	c #E7F890",
"2	c #E7F98B",
"3	c #E8F98C",
"4	c #E7F988",
"5	c #E6F888",
"6	c #E5F884",
"7	c #E6F881",
"8	c #E4F780",
"9	c #E3F77D",
"0	c #E5F87D",
"a	c #E3F779",
"b	c #E3F09F",
" . . .  . . . . . . . . . .",
" . . .  . . . . . . . . . .",
"+++++++++++++++++++++++++++",
"@#@#@#@@#@#@#@#@#@#@#@#@#@#",
"$%$%$%$$%$%$%$%$%$%$%$%$%$%",
"&&&&&&&&&&&&&&&&&&&&&&&&&&&",
"***************************",
"=-=-=-==-=-=-=-=-=-=-=-=-=-",
";>;>;>;;>;>;>;>;>;>;>;>;>;>",
",',',',,',',',',',',',',','",
")!)!)!))!)!)!)!)!)!)!)!)!)!",
"~~~~~~~~~~~~~~~~~~~~~~~~~~~",
"{{{{{{{{{{{{{{{{{{{{{{{{{{{",
"]^]^]^]]^]^]^]^]^]^]^]^]^]^",
"/(/(/(//(/(/(/(/(/(/(/(/(/(",
"_:_:_:__:_:_:_:_:_:_:_:_:_:",
"<<<<<<<<<<<<<<<<<<<<<<<<<<<",
"[}[}[}[[}[}[}[}[}[}[}[}[}[}",
"|||||||||||||||||||||||||||",
"111111111111111111111111111",
"232323223232323232323232323",
"454545445454545454545454545",
"666666666666666666666666666",
"787878778787878787878787878",
"909090990909090909090909090",
"aaaaaaaaaaaaaaaaaaaaaaaaaaa",
"bbbbbbbbbbbbbbbbbbbbbbbbbbb",
" . . .  . . . . . . . . . .",
" . . .  . . . . . . . . . .",
"+++++++++++++++++++++++++++",
"@#@#@#@@#@#@#@#@#@#@#@#@#@#",
"$%$%$%$$%$%$%$%$%$%$%$%$%$%",
"&&&&&&&&&&&&&&&&&&&&&&&&&&&",
"***************************",
"=-=-=-==-=-=-=-=-=-=-=-=-=-",
";>;>;>;;>;>;>;>;>;>;>;>;>;>",
",',',',,',',',',',',',',','",
")!)!)!))!)!)!)!)!)!)!)!)!)!",
"~~~~~~~~~~~~~~~~~~~~~~~~~~~",
"{{{{{{{{{{{{{{{{{{{{{{{{{{{",
"]^]^]^]]^]^]^]^]^]^]^]^]^]^",
"/(/(/(//(/(/(/(/(/(/(/(/(/(",
"_:_:_:__:_:_:_:_:_:_:_:_:_:",
"<<<<<<<<<<<<<<<<<<<<<<<<<<<",
"[}[}[}[[}[}[}[}[}[}[}[}[}[}",
"|||||||||||||||||||||||||||",
"111111111111111111111111111",
"232323223232323232323232323",
"454545445454545454545454545",
"666666666666666666666666666",
"787878778787878787878787878",
"909090990909090909090909090",
"aaaaaaaaaaaaaaaaaaaaaaaaaaa",
"bbbbbbbbbbbbbbbbbbbbbbbbbbb"};
