/* XPM */
static char * menuButtonI_old_xpm[] = {
"27 54 54 1",
" 	c #CFDB90",
".	c #F8FDD4",
"+	c #F7FDD2",
"@	c #F7FDD0",
"#	c #F7FDCE",
"$	c #F5FCCC",
"%	c #F5FCCA",
"&	c #F4FCC8",
"*	c #F4FCC7",
"=	c #F4FCC5",
"-	c #F4FCC3",
";	c #F3FCC1",
">	c #F3FCC0",
",	c #F3FCBE",
"'	c #F1FBBC",
")	c #F1FBBA",
"!	c #F0FBB8",
"~	c #F0FBB7",
"{	c #F0FBB4",
"]	c #F0FBB3",
"^	c #EFFBB1",
"/	c #EFFBAF",
"(	c #EFFBAD",
"_	c #EDFAAB",
":	c #EDFAAA",
"<	c #ECFAA8",
"[	c #ECFAA6",
"}	c #EDFAA4",
"|	c #EDFAA3",
"1	c #ECFAA1",
"2	c #ECFA9F",
"3	c #ECFA9D",
"4	c #EAF99B",
"5	c #EAF999",
"6	c #E9F997",
"7	c #E9F996",
"8	c #E9F994",
"9	c #E9F992",
"0	c #E8F990",
"a	c #E8F98F",
"b	c #E8F98D",
"c	c #E6F88B",
"d	c #E6F889",
"e	c #E5F887",
"f	c #E6F886",
"g	c #E5F883",
"h	c #E5F882",
"i	c #E4F880",
"j	c #E4F87E",
"k	c #E4F87C",
"l	c #E2F77A",
"m	c #E3F779",
"n	c #E1F777",
"o	c #E4F19F",
"                           ",
"...........................",
"+++++++++++++++++++++++++++",
"@@@@@@@@@@@@@@@@@@@@@@@@@@@",
"###########################",
"$$$$$$$$$$$$$$$$$$$$$$$$$$$",
"%%%%%%%%%%%%%%%%%%%%%%%%%%%",
"&&&&&&&&&&&&&&&&&&&&&&&&&&&",
"***************************",
"===========================",
"---------------------------",
";;;;;;;;;;;;;;;;;;;;;;;;;;;",
">>>>>>>>>>>>>>>>>>>>>>>>>>>",
",,,,,,,,,,,,,,,,,,,,,,,,,,,",
"'''''''''''''''''''''''''''",
")))))))))))))))))))))))))))",
"!!!!!!!!!!!!!!!!!!!!!!!!!!!",
"~~~~~~~~~~~~~~~~~~~~~~~~~~~",
"{{{{{{{{{{{{{{{{{{{{{{{{{{{",
"]]]]]]]]]]]]]]]]]]]]]]]]]]]",
"^^^^^^^^^^^^^^^^^^^^^^^^^^^",
"///////////////////////////",
"(((((((((((((((((((((((((((",
"___________________________",
":::::::::::::::::::::::::::",
"<<<<<<<<<<<<<<<<<<<<<<<<<<<",
"[[[[[[[[[[[[[[[[[[[[[[[[[[[",
"}}}}}}}}}}}}}}}}}}}}}}}}}}}",
"|||||||||||||||||||||||||||",
"111111111111111111111111111",
"222222222222222222222222222",
"333333333333333333333333333",
"444444444444444444444444444",
"555555555555555555555555555",
"666666666666666666666666666",
"777777777777777777777777777",
"888888888888888888888888888",
"999999999999999999999999999",
"000000000000000000000000000",
"aaaaaaaaaaaaaaaaaaaaaaaaaaa",
"bbbbbbbbbbbbbbbbbbbbbbbbbbb",
"ccccccccccccccccccccccccccc",
"ddddddddddddddddddddddddddd",
"eeeeeeeeeeeeeeeeeeeeeeeeeee",
"fffffffffffffffffffffffffff",
"ggggggggggggggggggggggggggg",
"hhhhhhhhhhhhhhhhhhhhhhhhhhh",
"iiiiiiiiiiiiiiiiiiiiiiiiiii",
"jjjjjjjjjjjjjjjjjjjjjjjjjjj",
"kkkkkkkkkkkkkkkkkkkkkkkkkkk",
"lllllllllllllllllllllllllll",
"mmmmmmmmmmmmmmmmmmmmmmmmmmm",
"nnnnnnnnnnnnnnnnnnnnnnnnnnn",
"ooooooooooooooooooooooooooo"};
