/* XPM */
static char * menuButtonA_xpm[] = {
"27 54 42 1",
" 	c #DDE5B1",
".	c #DDE6B1",
"+	c #DDE5AE",
"@	c #DCE5AE",
"#	c #DBE4AB",
"$	c #D9E3A9",
"%	c #DAE3A9",
"&	c #D8E2A6",
"*	c #D7E1A3",
"=	c #D7E1A4",
"-	c #D7E1A1",
";	c #D7E09E",
">	c #D7E09F",
",	c #D4DF9B",
"'	c #D5DF9C",
")	c #D3DE98",
"!	c #D1DD99",
"~	c #D2DD96",
"{	c #D1DC94",
"]	c #D0DC94",
"^	c #CFDB91",
"/	c #D0DB8F",
"(	c #CEDA8C",
"_	c #CCD989",
":	c #CBD886",
"<	c #CCD887",
"[	c #C9D783",
"}	c #CAD784",
"|	c #C8D681",
"1	c #CAD682",
"2	c #C6D57E",
"3	c #C7D57E",
"4	c #C6D47C",
"5	c #C8D57C",
"6	c #C7D47A",
"7	c #C6D479",
"8	c #C5D377",
"9	c #C4D376",
"0	c #C2D174",
"a	c #C4D274",
"b	c #C2D171",
"c	c #8F9764",
" . . .  . . . . . . . . . .",
" . . .  . . . . . . . . . .",
"+@+@+@++@+@+@+@+@+@+@+@+@+@",
"###########################",
"$%$%$%$$%$%$%$%$%$%$%$%$%$%",
"&&&&&&&&&&&&&&&&&&&&&&&&&&&",
"*=*=*=**=*=*=*=*=*=*=*=*=*=",
"---------------------------",
";>;>;>;;>;>;>;>;>;>;>;>;>;>",
",',',',,',',',',',',',',','",
")!)!)!))!)!)!)!)!)!)!)!)!)!",
"~~~~~~~~~~~~~~~~~~~~~~~~~~~",
"{]{]{]{{]{]{]{]{]{]{]{]{]{]",
"^^^^^^^^^^^^^^^^^^^^^^^^^^^",
"///////////////////////////",
"(((((((((((((((((((((((((((",
"___________________________",
":<:<:<::<:<:<:<:<:<:<:<:<:<",
"[}[}[}[[}[}[}[}[}[}[}[}[}[}",
"|1|1|1||1|1|1|1|1|1|1|1|1|1",
"232323223232323232323232323",
"454545445454545454545454545",
"676767667676767676767676767",
"898989889898989898989898989",
"0a0a0a00a0a0a0a0a0a0a0a0a0a",
"bbbbbbbbbbbbbbbbbbbbbbbbbbb",
"ccccccccccccccccccccccccccc",
" . . .  . . . . . . . . . .",
" . . .  . . . . . . . . . .",
"+@+@+@++@+@+@+@+@+@+@+@+@+@",
"###########################",
"$%$%$%$$%$%$%$%$%$%$%$%$%$%",
"&&&&&&&&&&&&&&&&&&&&&&&&&&&",
"*=*=*=**=*=*=*=*=*=*=*=*=*=",
"---------------------------",
";>;>;>;;>;>;>;>;>;>;>;>;>;>",
",',',',,',',',',',',',',','",
")!)!)!))!)!)!)!)!)!)!)!)!)!",
"~~~~~~~~~~~~~~~~~~~~~~~~~~~",
"{]{]{]{{]{]{]{]{]{]{]{]{]{]",
"^^^^^^^^^^^^^^^^^^^^^^^^^^^",
"///////////////////////////",
"(((((((((((((((((((((((((((",
"___________________________",
":<:<:<::<:<:<:<:<:<:<:<:<:<",
"[}[}[}[[}[}[}[}[}[}[}[}[}[}",
"|1|1|1||1|1|1|1|1|1|1|1|1|1",
"232323223232323232323232323",
"454545445454545454545454545",
"676767667676767676767676767",
"898989889898989898989898989",
"0a0a0a00a0a0a0a0a0a0a0a0a0a",
"bbbbbbbbbbbbbbbbbbbbbbbbbbb",
"ccccccccccccccccccccccccccc"};
