/* XPM */
static char * restoreA_xpm[] = {
"26 54 43 1",
" 	c #DDE5B1",
".	c #DDE6B1",
"+	c #DDE5AE",
"@	c #DCE5AE",
"#	c #DBE4AB",
"$	c #D9E3A9",
"%	c #DAE3A9",
"&	c #D8E2A6",
"*	c #D7E1A3",
"=	c #D7E1A4",
"-	c #D7E1A1",
";	c #D7E09E",
">	c #D7E09F",
",	c #D4DF9B",
"'	c #D5DF9C",
")	c #1D1F15",
"!	c #D3DE98",
"~	c #D1DD99",
"{	c #D2DD96",
"]	c #D1DC94",
"^	c #D0DC94",
"/	c #CFDB91",
"(	c #D0DB8F",
"_	c #CEDA8C",
":	c #CCD989",
"<	c #CBD886",
"[	c #CCD887",
"}	c #C9D783",
"|	c #CAD784",
"1	c #C8D681",
"2	c #CAD682",
"3	c #C6D57E",
"4	c #C7D57E",
"5	c #C6D47C",
"6	c #C8D57C",
"7	c #C7D47A",
"8	c #C6D479",
"9	c #C5D377",
"0	c #C4D376",
"a	c #C2D174",
"b	c #C4D274",
"c	c #C2D171",
"d	c #8F9764",
" . . .  . . . . . . . . . ",
" . . .  . . . . . . . . . ",
"+@+@+@++@+@+@+@+@+@+@+@+@+",
"##########################",
"$%$%$%$$%$%$%$%$%$%$%$%$%$",
"&&&&&&&&&&&&&&&&&&&&&&&&&&",
"*=*=*=**=*=*=*=*=*=*=*=*=*",
"--------------------------",
";>;>;>;;>;>;>;>;>;>;>;>;>;",
",',',',,')))))))),',',',',",
"!~!~!~!!~))))))))!~!~!~!~!",
"{{{{{{{{{)){{{{)){{{{{{{{{",
"]^]^]^]]^))]^]^))]^]^]^]^]",
"/////////))////))/////////",
"((((((((())(((())(((((((((",
"_________))))))))_________",
":::::::::)))))))):::::::::",
"<[<[<[<<[<[<[<[<[<[<[<[<[<",
"}|}|}|}}|}|}|}|}|}|}|}|}|}",
"12121211212121212121212121",
"34343433434343434343434343",
"56565655656565656565656565",
"78787877878787878787878787",
"90909099090909090909090909",
"abababaabababababababababa",
"cccccccccccccccccccccccccc",
"dddddddddddddddddddddddddd",
" . . .  . . . . . . . . . ",
" . . .  . . . . . . . . . ",
"+@+@+@++@+@+@+@+@+@+@+@+@+",
"##########################",
"$%$%$%$$%$%$%$%$%$%$%$%$%$",
"&&&&&&&&&&&&&&&&&&&&&&&&&&",
"*=*=*=**=*=*=*=*=*=*=*=*=*",
"--------------------------",
";>;>;>;;>;>;>;>;>;>;>;>;>;",
",',',',,')))))))),',',',',",
"!~!~!~!!~))))))))!~!~!~!~!",
"{{{{{{{{{)){{{{)){{{{{{{{{",
"]^]^]^]]^))]^]^))]^]^]^]^]",
"/////////))////))/////////",
"((((((((())(((())(((((((((",
"_________))))))))_________",
":::::::::)))))))):::::::::",
"<[<[<[<<[<[<[<[<[<[<[<[<[<",
"}|}|}|}}|}|}|}|}|}|}|}|}|}",
"12121211212121212121212121",
"34343433434343434343434343",
"56565655656565656565656565",
"78787877878787878787878787",
"90909099090909090909090909",
"abababaabababababababababa",
"cccccccccccccccccccccccccc",
"dddddddddddddddddddddddddd"};
