/* XPM */
static char * restoreI_xpm[] = {
"26 54 42 1",
" 	c #F7FDD4",
".	c #F6FCD4",
"+	c #F6FDD0",
"@	c #F6FDCD",
"#	c #F4FCCC",
"$	c #F4FCC9",
"%	c #F4FCC8",
"&	c #F4FCC5",
"*	c #F3FCC1",
"=	c #F2FCBD",
"-	c #F3FCBD",
";	c #F1FBB9",
">	c #F2FCB9",
",	c #F1FBB6",
"'	c #EFFBB5",
")	c #1D1F15",
"!	c #EFFBB2",
"~	c #F0FBB2",
"{	c #EEFAAE",
"]	c #EDFAAA",
"^	c #EEFAA7",
"/	c #ECFAA6",
"(	c #ECFAA2",
"_	c #EBF9A3",
":	c #EBFA9F",
"<	c #EBF99F",
"[	c #ECFA9B",
"}	c #EAFA97",
"|	c #EBFA97",
"1	c #E9F994",
"2	c #E7F890",
"3	c #E7F98B",
"4	c #E8F98C",
"5	c #E7F988",
"6	c #E6F888",
"7	c #E5F884",
"8	c #E6F881",
"9	c #E4F780",
"0	c #E3F77D",
"a	c #E5F87D",
"b	c #E3F779",
"c	c #E3F09F",
" . . .  . . . . . . . . . ",
" . . .  . . . . . . . . . ",
"++++++++++++++++++++++++++",
"@#@#@#@@#@#@#@#@#@#@#@#@#@",
"$%$%$%$$%$%$%$%$%$%$%$%$%$",
"&&&&&&&&&&&&&&&&&&&&&&&&&&",
"**************************",
"=-=-=-==-=-=-=-=-=-=-=-=-=",
";>;>;>;;>;>;>;>;>;>;>;>;>;",
",',',',,')))))))),',',',',",
"!~!~!~!!~))))))))!~!~!~!~!",
"{{{{{{{{{)){{{{)){{{{{{{{{",
"]]]]]]]]]))]]]]))]]]]]]]]]",
"^/^/^/^^/))^/^/))^/^/^/^/^",
"(_(_(_((_))(_(_))(_(_(_(_(",
":<:<:<::<)))))))):<:<:<:<:",
"[[[[[[[[[))))))))[[[[[[[[[",
"}|}|}|}}|}|}|}|}|}|}|}|}|}",
"11111111111111111111111111",
"22222222222222222222222222",
"34343433434343434343434343",
"56565655656565656565656565",
"77777777777777777777777777",
"89898988989898989898989898",
"0a0a0a00a0a0a0a0a0a0a0a0a0",
"bbbbbbbbbbbbbbbbbbbbbbbbbb",
"cccccccccccccccccccccccccc",
" . . .  . . . . . . . . . ",
" . . .  . . . . . . . . . ",
"++++++++++++++++++++++++++",
"@#@#@#@@#@#@#@#@#@#@#@#@#@",
"$%$%$%$$%$%$%$%$%$%$%$%$%$",
"&&&&&&&&&&&&&&&&&&&&&&&&&&",
"**************************",
"=-=-=-==-=-=-=-=-=-=-=-=-=",
";>;>;>;;>;>;>;>;>;>;>;>;>;",
",',',',,')))))))),',',',',",
"!~!~!~!!~))))))))!~!~!~!~!",
"{{{{{{{{{)){{{{)){{{{{{{{{",
"]]]]]]]]]))]]]]))]]]]]]]]]",
"^/^/^/^^/))^/^/))^/^/^/^/^",
"(_(_(_((_))(_(_))(_(_(_(_(",
":<:<:<::<)))))))):<:<:<:<:",
"[[[[[[[[[))))))))[[[[[[[[[",
"}|}|}|}}|}|}|}|}|}|}|}|}|}",
"11111111111111111111111111",
"22222222222222222222222222",
"34343433434343434343434343",
"56565655656565656565656565",
"77777777777777777777777777",
"89898988989898989898989898",
"0a0a0a00a0a0a0a0a0a0a0a0a0",
"bbbbbbbbbbbbbbbbbbbbbbbbbb",
"cccccccccccccccccccccccccc"};
