/* XPM */
static char * titleIT_xpm[] = {
"1 27 26 1",
" 	c #F7FDD4",
".	c #F6FDD0",
"+	c #F6FDCD",
"@	c #F4FCC9",
"#	c #F4FCC5",
"$	c #F3FCC1",
"%	c #F2FCBD",
"&	c #F1FBB9",
"*	c #F1FBB6",
"=	c #EFFBB2",
"-	c #EEFAAE",
";	c #EDFAAA",
">	c #EEFAA7",
",	c #ECFAA2",
"'	c #EBFA9F",
")	c #ECFA9B",
"!	c #EAFA97",
"~	c #E9F994",
"{	c #E7F890",
"]	c #E7F98B",
"^	c #E7F988",
"/	c #E5F884",
"(	c #E6F881",
"_	c #E3F77D",
":	c #E3F779",
"<	c #E3F09F",
" ",
" ",
".",
"+",
"@",
"#",
"$",
"%",
"&",
"*",
"=",
"-",
";",
">",
",",
"'",
")",
"!",
"~",
"{",
"]",
"^",
"/",
"(",
"_",
":",
"<"};
