/* XPM */
static char * start_xpm[] = {
"30 30 115 2",
"  	c None",
". 	c #B3AF4A",
"+ 	c #B3B04A",
"@ 	c #B3AF4B",
"# 	c #B3AE4A",
"$ 	c #B0AE4A",
"% 	c #AFAD4A",
"& 	c #B0AE49",
"* 	c #AFAE4A",
"= 	c #AFAF4A",
"- 	c #AEAE4A",
"; 	c #AEAE49",
"> 	c #ACAE4A",
", 	c #ABAE4A",
"' 	c #ABAE47",
") 	c #A8AE47",
"! 	c #A8AE48",
"~ 	c #AEB454",
"{ 	c #B1B65A",
"] 	c #ABB14E",
"^ 	c #A9AF48",
"/ 	c #BBC070",
"( 	c #D5D8A7",
"_ 	c #C2C67E",
": 	c #DADCB0",
"< 	c #F9F9F1",
"[ 	c #FFFFFF",
"} 	c #FFFFFE",
"| 	c #F1F2E1",
"1 	c #CFD39A",
"2 	c #ACB250",
"3 	c #B3B85D",
"4 	c #E2E4C2",
"5 	c #A7AE48",
"6 	c #A7AE47",
"7 	c #AAB14D",
"8 	c #A9B04C",
"9 	c #B3B960",
"0 	c #DBDEB5",
"a 	c #F5F6EB",
"b 	c #CACE91",
"c 	c #B3B961",
"d 	c #AFB557",
"e 	c #DCDFB7",
"f 	c #E1E3BF",
"g 	c #A6AD47",
"h 	c #A6AE47",
"i 	c #D3D7A5",
"j 	c #B6BC67",
"k 	c #F9F9F2",
"l 	c #DADEB3",
"m 	c #EDEED9",
"n 	c #D4D8A6",
"o 	c #DDE0B8",
"p 	c #BDC376",
"q 	c #A3AE47",
"r 	c #D6DBAD",
"s 	c #E8EAD0",
"t 	c #EFF1DF",
"u 	c #A3AE48",
"v 	c #E4E7CA",
"w 	c #FCFCF9",
"x 	c #B6BF6E",
"y 	c #A1AE47",
"z 	c #E2E6C5",
"A 	c #FBFCF7",
"B 	c #F9FAF4",
"C 	c #BBC57A",
"D 	c #A0AE47",
"E 	c #A1AE46",
"F 	c #D1D8A6",
"G 	c #E1E5C4",
"H 	c #ADB85F",
"I 	c #A1AE48",
"J 	c #A0AF47",
"K 	c #FEFEFC",
"L 	c #EBEED9",
"M 	c #D3D9A9",
"N 	c #AFBB64",
"O 	c #A0AD47",
"P 	c #9EAE47",
"Q 	c #C1CB89",
"R 	c #A2B14E",
"S 	c #DAE0B8",
"T 	c #ECEFDA",
"U 	c #EDF0DD",
"V 	c #F8F9F1",
"W 	c #E6EACF",
"X 	c #E3E8CA",
"Y 	c #DCE1BC",
"Z 	c #D0D8A6",
"` 	c #C5CF91",
" .	c #B8C478",
"..	c #A3B250",
"+.	c #D7DDB3",
"@.	c #FDFEFC",
"#.	c #ADBA63",
"$.	c #9CAE47",
"%.	c #BDC985",
"&.	c #E0E6C5",
"*.	c #A2B353",
"=.	c #9CAF47",
"-.	c #99AE47",
";.	c #99AF47",
">.	c #96AF47",
",.	c #97AE47",
"'.	c #97AE46",
").	c #97AD48",
"!.	c #98AE47",
"~.	c #95AE45",
"{.	c #94AF45",
"].	c #94AE45",
"^.	c #95AE46",
"/.	c #94AD45",
"(.	c #94AE44",
"                      . + . . . . + @                       ",
"                  # # # # # # # # # # # #                   ",
"              $ $ $ $ $ $ $ $ $ $ $ $ $ $ $ $               ",
"          % $ $ $ $ $ $ $ $ $ $ $ $ $ $ $ $ $ $ &           ",
"        * * * * * * * * * * * * * * * * * * * * * =         ",
"      - - - - - - - - - - - - - - - - - - - - - - - ;       ",
"      - - - - - - - - - - - - - - - - - - - - - - - -       ",
"    > , , , , , , , , , , , , , , , , , , , , , , , , ,     ",
"    ' ' ' ' ' ' ' ' ' ' ' ' ' ' ' ' ' ' ' ' ' ' ' ' ' '     ",
"  ) ) ) ) ) ) ) ) ! ~ { ] ) ) ) ) ) ) ) ) ) ) ) ^ / ( _ )   ",
"  ) ) ) ) ) ) ] : < [ [ } | 1 2 ) ) ) ) ) ) ) 3 | [ [ 4 )   ",
"5 6 7 6 8 9 9 0 [ [ [ [ [ [ [ a b c 9 9 9 d 6 e [ [ [ f 6 5 ",
"g h i j k [ [ [ [ [ [ [ [ [ [ [ [ [ [ [ [ [ l m [ [ [ n h g ",
"h h n o [ [ [ [ [ [ [ [ [ [ [ [ [ [ [ [ [ [ [ [ [ [ [ p h h ",
"q q r s [ [ [ [ [ [ [ [ [ [ [ [ [ [ [ [ [ [ [ [ [ [ t u q q ",
"q q v [ [ [ [ [ [ [ [ [ [ [ [ [ [ [ [ [ [ [ [ [ [ w x q q q ",
"y y z A [ [ [ [ [ [ [ [ [ [ [ [ [ [ [ [ [ [ [ [ B C y y y D ",
"E y F G [ [ [ [ [ [ [ [ [ [ [ [ [ [ [ [ [ [ } G H y y y y I ",
"J D F F [ [ [ [ [ [ [ [ [ [ [ [ [ [ [ K L M N D D D D D D O ",
"  P Q R S L T U V T T T T W X Y Z `  ...P P P P P P P P P   ",
"  P P P P P P +.@.#.P P P P P P P P P P P P P P P P P P P   ",
"    $.$.$.$.$.%.&.*.$.$.$.$.$.$.$.$.$.$.$.$.$.$.$.$.$.$.    ",
"    =.$.$.$.$.$.$.$.$.$.$.$.$.$.$.$.$.$.$.$.$.$.$.$.$.$.    ",
"      -.-.-.-.-.-.-.-.-.-.-.-.-.-.-.-.-.-.-.-.-.-.-.-.      ",
"      -.-.-.-.-.-.-.-.-.-.-.-.-.-.-.-.-.-.-.-.-.-.-.;.      ",
"        >.,.,.,.,.,.,.,.,.,.,.,.,.,.,.,.,.,.,.,.,.'.        ",
"          ).,.,.,.,.,.,.,.,.,.,.,.,.,.,.,.,.,.,.!.          ",
"              ~.~.~.~.~.~.~.~.~.~.~.~.~.~.~.{.              ",
"                  ].].].].].].].].].].].].                  ",
"                      ^./.].].].]./.(.                      "};
