/* XPM */
static char * taskbuttonminimized_xpm[] = {
"1 27 27 1",
" 	c #DCE5B0",
".	c #DBE4AE",
"+	c #DBE4AC",
"@	c #DAE3A9",
"#	c #D8E2A6",
"$	c #D7E1A4",
"%	c #D6E0A2",
"&	c #D5E09F",
"*	c #D5DF9D",
"=	c #D4DF9A",
"-	c #D2DD98",
";	c #D1DC96",
">	c #D0DC92",
",	c #CEDA90",
"'	c #CFDA8E",
")	c #CDD98B",
"!	c #CDD988",
"~	c #CAD786",
"{	c #CAD783",
"]	c #C8D681",
"^	c #C8D57F",
"/	c #C6D47C",
"(	c #C6D479",
"_	c #C5D376",
":	c #C3D274",
"<	c #C1D171",
"[	c #C0D06F",
" ",
".",
"+",
"@",
"#",
"$",
"%",
"&",
"*",
"=",
"-",
";",
">",
",",
"'",
")",
"!",
"~",
"{",
"]",
"^",
"/",
"(",
"_",
":",
"<",
"["};
